HIERARCHY
ROOT hip
{
	OFFSET 0.000000 0.000000 0.000000
	CHANNELS 6 Xposition Yposition Zposition Xrotation Zrotation Yrotation 
	JOINT abdomen
	{
		OFFSET 0.000000 3.422050 0.000000
		CHANNELS 3 Xrotation Zrotation Yrotation 
		JOINT chest
		{
			OFFSET 0.000000 8.486693 -0.6844110
			CHANNELS 3 Xrotation Zrotation Yrotation 
			JOINT neck
			{
				OFFSET 0.000000 10.26616 -0.2737640
				CHANNELS 3 Xrotation Zrotation Yrotation 
				JOINT head
				{
					OFFSET 0.000000 3.148285 0.000000
					CHANNELS 3 Xrotation Zrotation Yrotation 
					End Site
					{
						OFFSET 0.000000 3.148289 0.000000
					}
				}
			}
			JOINT lCollar
			{
				OFFSET 3.422053 6.707223 -0.8212930
				CHANNELS 3 Yrotation Zrotation Xrotation 
				JOINT lShldr
				{
					OFFSET 3.285171 0.000000 0.000000
					CHANNELS 3 Zrotation Yrotation Xrotation 
					JOINT lForeArm
					{
						OFFSET 10.12928 0.000000 0.000000
						CHANNELS 3 Yrotation Zrotation Xrotation 
						JOINT lHand
						{
							OFFSET 8.486692 0.000000 0.000000
							CHANNELS 3 Zrotation Yrotation Xrotation 
							End Site
							{
								OFFSET 4.106464 0.000000 0.000000
							}
						}
					}
				}
			}
			JOINT rCollar
			{
				OFFSET -3.558935 6.707223 -0.8212930
				CHANNELS 3 Yrotation Zrotation Xrotation 
				JOINT rShldr
				{
					OFFSET -3.148289 0.000000 0.000000
					CHANNELS 3 Zrotation Yrotation Xrotation 
					JOINT rForeArm
					{
						OFFSET -10.26616 0.000000 0.000000
						CHANNELS 3 Yrotation Zrotation Xrotation 
						JOINT rHand
						{
							OFFSET -8.349810 0.000000 0.000000
							CHANNELS 3 Zrotation Yrotation Xrotation 
							End Site
							{
								OFFSET -4.106464 0.000000 0.000000
							}
						}
					}
				}
			}
		}
	}
	JOINT lThigh
	{
		OFFSET 5.338403 -1.642589 1.368821
		CHANNELS 3 Xrotation Zrotation Yrotation 
		JOINT lShin
		{
			OFFSET -2.053232 -20.12167 0.000000
			CHANNELS 3 Xrotation Zrotation Yrotation 
			JOINT lFoot
			{
				OFFSET 0.000000 -19.30038 -1.231939
				CHANNELS 3 Xrotation Yrotation Zrotation 
				End Site
				{
					OFFSET 0.000000 -2.463878 4.653993
				}
			}
		}
	}
	JOINT rThigh
	{
		OFFSET -5.338403 -1.642589 1.368821
		CHANNELS 3 Xrotation Zrotation Yrotation 
		JOINT rShin
		{
			OFFSET 2.053232 -20.12167 0.000000
			CHANNELS 3 Xrotation Zrotation Yrotation 
			JOINT rFoot
			{
				OFFSET 0.000000 -19.30038 -1.231939
				CHANNELS 3 Xrotation Yrotation Zrotation 
				End Site
				{
					OFFSET 0.000000 -2.463878 4.653993
				}
			}
		}
	}
}
MOTION
Frames:	21
Frame Time:	0.03333333
0.000000 43.52852 0.000000 0.000000 0.000000 0.000000 0.000000 0.000000 0.000000 0.000000 0.000000 0.000000 0.000000 0.000000 0.000000 0.000000 0.000000 0.000000 0.000000 0.000000 0.000000 0.000000 0.000000 0.000000 0.000000 0.000000 0.000000 0.000000 0.000000 0.000000 0.000000 0.000000 0.000000 0.000000 0.000000 0.000000 0.000000 0.000000 0.000000 0.000000 0.000000 0.000000 0.000000 0.000000 0.000000 0.000000 0.000000 0.000000 0.000000 0.000000 0.000000 0.000000 0.000000 0.000000 0.000000 0.000000 0.000000 0.000000 0.000000 0.000000 
0.000000 39.00000 0.000000 1.000000 0.000000 0.000000 1.000000 0.000000 0.000000 1.000000 0.000000 0.000000 1.000000 0.000000 0.000000 1.000000 0.000000 0.000000 0.000000 0.000000 1.000000 -81.00000 -34.00000 77.00000 -90.00000 0.000000 0.000000 0.000000 0.000000 1.000000 0.000000 0.000000 1.000000 81.00000 58.00000 87.00000 90.00000 0.000000 0.000000 0.000000 0.000000 1.000000 -15.00000 0.000000 0.000000 30.00000 0.000000 0.000000 -16.00000 0.000000 0.000000 -15.00000 0.000000 0.000000 30.00000 0.000000 0.000000 -16.00000 0.000000 0.000000 
0.000000 39.00000 0.000000 1.000000 0.000000 0.000000 1.000000 0.000000 0.000000 1.000000 0.000000 0.000000 1.000000 0.000000 0.000000 1.000000 0.000000 0.000000 0.000000 0.000000 1.000000 -75.76923 -33.05128 75.07692 -85.00000 0.000000 0.000000 0.000000 0.000000 1.000000 0.000000 0.000000 1.000000 75.76923 53.05128 84.30769 85.00000 0.000000 0.000000 0.000000 0.000000 1.000000 -15.00000 0.000000 0.000000 30.00000 0.000000 0.000000 -16.00000 0.000000 0.000000 -15.83333 -2.384617 0.000000 37.50000 0.000000 0.000000 -13.46154 0.000000 0.000000 
0.000000 39.00000 0.000000 1.000000 0.000000 0.000000 1.000000 0.000000 0.000000 1.000000 0.000000 0.000000 1.000000 0.000000 0.000000 1.000000 0.000000 0.000000 0.000000 0.000000 1.000000 -70.53846 -32.10256 73.15385 -80.00000 0.000000 0.000000 0.000000 0.000000 1.000000 0.000000 0.000000 1.000000 70.53846 48.10256 81.61539 80.00000 0.000000 0.000000 0.000000 0.000000 1.000000 -15.00000 0.000000 0.000000 30.00000 0.000000 0.000000 -16.00000 0.000000 0.000000 -16.66667 -4.769233 0.000000 45.00000 0.000000 0.000000 -10.92308 0.000000 0.000000 
0.000000 39.00000 0.000000 1.000000 0.000000 0.000000 1.000000 0.000000 0.000000 1.000000 0.000000 0.000000 1.000000 0.000000 0.000000 1.000000 0.000000 0.000000 0.000000 0.000000 1.000000 -65.30769 -31.15385 71.23077 -75.00000 0.000000 0.000000 0.000000 0.000000 1.000000 0.000000 0.000000 1.000000 65.30769 43.15385 78.92308 75.00000 0.000000 0.000000 0.000000 0.000000 1.000000 -15.00000 0.000000 0.000000 30.00000 0.000000 0.000000 -16.00000 0.000000 0.000000 -17.50000 -7.153850 0.000000 52.50000 0.000000 0.000000 -8.384615 0.000000 0.000000 
0.000000 39.00000 0.000000 1.000000 0.000000 0.000000 1.000000 0.000000 0.000000 1.000000 0.000000 0.000000 1.000000 0.000000 0.000000 1.000000 0.000000 0.000000 0.000000 0.000000 1.000000 -60.07692 -30.20513 69.30769 -70.00000 0.000000 0.000000 0.000000 0.000000 1.000000 0.000000 0.000000 1.000000 60.07692 38.20513 76.23077 70.00000 0.000000 0.000000 0.000000 0.000000 1.000000 -15.00000 0.000000 0.000000 30.00000 0.000000 0.000000 -16.00000 0.000000 0.000000 -18.33333 -9.538466 0.000000 60.00000 0.000000 0.000000 -5.846154 0.000000 0.000000 
0.000000 39.00000 0.000000 1.000000 0.000000 0.000000 1.000000 0.000000 0.000000 1.000000 0.000000 0.000000 1.000000 0.000000 0.000000 1.000000 0.000000 0.000000 0.000000 0.000000 1.000000 -54.84615 -29.25641 67.38461 -65.00000 0.000000 0.000000 0.000000 0.000000 1.000000 0.000000 0.000000 1.000000 54.84615 33.25641 73.53846 65.00000 0.000000 0.000000 0.000000 0.000000 1.000000 -15.00000 0.000000 0.000000 30.00000 0.000000 0.000000 -16.00000 0.000000 0.000000 -19.16667 -11.92308 0.000000 67.50000 0.000000 0.000000 -3.307692 0.000000 0.000000 
0.000000 39.00000 0.000000 1.000000 0.000000 0.000000 1.000000 0.000000 0.000000 1.000000 0.000000 0.000000 1.000000 0.000000 0.000000 1.000000 0.000000 0.000000 0.000000 0.000000 1.000000 -49.61538 -28.30769 65.46154 -60.00000 0.000000 0.000000 0.000000 0.000000 1.000000 0.000000 0.000000 1.000000 49.61538 28.30769 70.84615 60.00000 0.000000 0.000000 0.000000 0.000000 1.000000 -15.00000 0.000000 0.000000 30.00000 0.000000 0.000000 -16.00000 0.000000 0.000000 -20.00000 -14.30770 0.000000 75.00000 0.000000 0.000000 -0.7692308 0.000000 0.000000 
0.000000 39.00000 0.000000 1.000000 0.000000 0.000000 1.000000 0.000000 0.000000 1.000000 0.000000 0.000000 1.000000 0.000000 0.000000 1.000000 0.000000 0.000000 0.000000 0.000000 1.000000 -44.38461 -25.69231 63.53846 -55.00000 0.000000 0.000000 0.000000 0.000000 1.000000 0.000000 0.000000 1.000000 44.38461 25.69231 68.15385 55.00000 0.000000 0.000000 0.000000 0.000000 1.000000 -15.00000 0.000000 0.000000 30.00000 0.000000 0.000000 -16.00000 0.000000 0.000000 -17.00000 -16.69231 0.000000 64.42857 0.000000 0.000000 1.769231 0.000000 0.000000 
0.000000 39.00000 0.000000 1.000000 0.000000 0.000000 1.000000 0.000000 0.000000 1.000000 0.000000 0.000000 1.000000 0.000000 0.000000 1.000000 0.000000 0.000000 0.000000 0.000000 1.000000 -39.15385 -23.07692 61.61539 -50.00000 0.000000 0.000000 0.000000 0.000000 1.000000 0.000000 0.000000 1.000000 39.15385 23.07692 65.46154 50.00000 0.000000 0.000000 0.000000 0.000000 1.000000 -15.00000 0.000000 0.000000 30.00000 0.000000 0.000000 -16.00000 0.000000 0.000000 -14.00000 -19.07693 0.000000 53.85714 0.000000 0.000000 4.307693 0.000000 0.000000 
0.000000 39.00000 0.000000 1.000000 0.000000 0.000000 1.000000 0.000000 0.000000 1.000000 0.000000 0.000000 1.000000 0.000000 0.000000 1.000000 0.000000 0.000000 0.000000 0.000000 1.000000 -33.92308 -20.46154 59.69231 -45.00000 0.000000 0.000000 0.000000 0.000000 1.000000 0.000000 0.000000 1.000000 33.92308 20.46154 62.76923 45.00000 0.000000 0.000000 0.000000 0.000000 1.000000 -15.00000 0.000000 0.000000 30.00000 0.000000 0.000000 -16.00000 0.000000 0.000000 -11.00000 -21.46154 0.000000 43.28571 0.000000 0.000000 6.846154 0.000000 0.000000 
0.000000 39.00000 0.000000 1.000000 0.000000 0.000000 1.000000 0.000000 0.000000 1.000000 0.000000 0.000000 1.000000 0.000000 0.000000 1.000000 0.000000 0.000000 0.000000 0.000000 1.000000 -28.69231 -17.84615 57.76923 -40.00000 0.000000 0.000000 0.000000 0.000000 1.000000 0.000000 0.000000 1.000000 28.69231 17.84615 60.07692 40.00000 0.000000 0.000000 0.000000 0.000000 1.000000 -15.00000 0.000000 0.000000 30.00000 0.000000 0.000000 -16.00000 0.000000 0.000000 -8.000000 -23.84616 0.000000 32.71429 0.000000 0.000000 9.384615 0.000000 0.000000 
0.000000 39.00000 0.000000 1.000000 0.000000 0.000000 1.000000 0.000000 0.000000 1.000000 0.000000 0.000000 1.000000 0.000000 0.000000 1.000000 0.000000 0.000000 0.000000 0.000000 1.000000 -23.46154 -15.23077 55.84615 -35.00000 0.000000 0.000000 0.000000 0.000000 1.000000 0.000000 0.000000 1.000000 23.46154 15.23077 57.38462 35.00000 0.000000 0.000000 0.000000 0.000000 1.000000 -15.00000 0.000000 0.000000 30.00000 0.000000 0.000000 -16.00000 0.000000 0.000000 -5.000000 -26.23077 0.000000 22.14286 0.000000 0.000000 11.92308 0.000000 0.000000 
0.000000 39.00000 0.000000 1.000000 0.000000 0.000000 1.000000 0.000000 0.000000 1.000000 0.000000 0.000000 1.000000 0.000000 0.000000 1.000000 0.000000 0.000000 0.000000 0.000000 1.000000 -18.23077 -12.61538 53.92308 -30.00000 0.000000 0.000000 0.000000 0.000000 1.000000 0.000000 0.000000 1.000000 18.23077 12.61538 54.69231 30.00000 0.000000 0.000000 0.000000 0.000000 1.000000 -15.00000 0.000000 0.000000 30.00000 0.000000 0.000000 -16.00000 0.000000 0.000000 -2.000000 -28.61539 0.000000 11.57143 0.000000 0.000000 14.46154 0.000000 0.000000 
0.000000 39.00000 0.000000 1.000000 0.000000 0.000000 1.000000 0.000000 0.000000 1.000000 0.000000 0.000000 1.000000 0.000000 0.000000 1.000000 0.000000 0.000000 0.000000 0.000000 1.000000 -13.00000 -10.00000 52.00000 -25.00000 0.000000 0.000000 0.000000 0.000000 1.000000 0.000000 0.000000 1.000000 13.00000 10.00000 52.00000 25.00000 0.000000 0.000000 0.000000 0.000000 1.000000 -15.00000 0.000000 0.000000 30.00000 0.000000 0.000000 -16.00000 0.000000 0.000000 1.000000 -31.00000 0.000000 1.000000 0.000000 0.000000 17.00000 0.000000 0.000000 
0.000000 39.00000 0.000000 1.000000 0.000000 0.000000 1.000000 0.000000 0.000000 1.000000 0.000000 0.000000 1.000000 0.000000 0.000000 1.000000 0.000000 0.000000 0.000000 0.000000 1.000000 -17.57692 -12.28846 53.68269 -29.37500 0.000000 0.000000 0.000000 0.000000 1.000000 0.000000 0.000000 1.000000 17.57692 12.28846 54.35577 29.37500 0.000000 0.000000 0.000000 0.000000 1.000000 -15.00000 0.000000 0.000000 30.00000 0.000000 0.000000 -16.00000 0.000000 0.000000 -1.625000 -28.91346 0.000000 10.25000 0.000000 0.000000 14.77885 0.000000 0.000000 
0.000000 39.00000 0.000000 1.000000 0.000000 0.000000 1.000000 0.000000 0.000000 1.000000 0.000000 0.000000 1.000000 0.000000 0.000000 1.000000 0.000000 0.000000 0.000000 0.000000 1.000000 -22.15385 -14.57692 55.36539 -33.75000 0.000000 0.000000 0.000000 0.000000 1.000000 0.000000 0.000000 1.000000 22.15385 14.57692 56.71154 33.75000 0.000000 0.000000 0.000000 0.000000 1.000000 -15.00000 0.000000 0.000000 30.00000 0.000000 0.000000 -16.00000 0.000000 0.000000 -4.250000 -26.82693 0.000000 19.50000 0.000000 0.000000 12.55769 0.000000 0.000000 
0.000000 39.00000 0.000000 1.000000 0.000000 0.000000 1.000000 0.000000 0.000000 1.000000 0.000000 0.000000 1.000000 0.000000 0.000000 1.000000 0.000000 0.000000 0.000000 0.000000 1.000000 -26.73077 -16.86539 57.04808 -38.12500 0.000000 0.000000 0.000000 0.000000 1.000000 0.000000 0.000000 1.000000 26.73077 16.86539 59.06731 38.12500 0.000000 0.000000 0.000000 0.000000 1.000000 -15.00000 0.000000 0.000000 30.00000 0.000000 0.000000 -16.00000 0.000000 0.000000 -6.875000 -24.74039 0.000000 28.75000 0.000000 0.000000 10.33654 0.000000 0.000000 
0.000000 39.00000 0.000000 1.000000 0.000000 0.000000 1.000000 0.000000 0.000000 1.000000 0.000000 0.000000 1.000000 0.000000 0.000000 1.000000 0.000000 0.000000 0.000000 0.000000 1.000000 -31.30769 -19.15385 58.73077 -42.50000 0.000000 0.000000 0.000000 0.000000 1.000000 0.000000 0.000000 1.000000 31.30769 19.15385 61.42308 42.50000 0.000000 0.000000 0.000000 0.000000 1.000000 -15.00000 0.000000 0.000000 30.00000 0.000000 0.000000 -16.00000 0.000000 0.000000 -9.500000 -22.65385 0.000000 38.00000 0.000000 0.000000 8.115385 0.000000 0.000000 
0.000000 39.00000 0.000000 1.000000 0.000000 0.000000 1.000000 0.000000 0.000000 1.000000 0.000000 0.000000 1.000000 0.000000 0.000000 1.000000 0.000000 0.000000 0.000000 0.000000 1.000000 -35.88461 -21.44231 60.41346 -46.87500 0.000000 0.000000 0.000000 0.000000 1.000000 0.000000 0.000000 1.000000 35.88461 21.44231 63.77885 46.87500 0.000000 0.000000 0.000000 0.000000 1.000000 -15.00000 0.000000 0.000000 30.00000 0.000000 0.000000 -16.00000 0.000000 0.000000 -12.12500 -20.56731 0.000000 47.25000 0.000000 0.000000 5.894231 0.000000 0.000000 
0.000000 39.00000 0.000000 1.000000 0.000000 0.000000 1.000000 0.000000 0.000000 1.000000 0.000000 0.000000 1.000000 0.000000 0.000000 1.000000 0.000000 0.000000 0.000000 0.000000 1.000000 -40.46154 -23.73077 62.09615 -51.25000 0.000000 0.000000 0.000000 0.000000 1.000000 0.000000 0.000000 1.000000 40.46154 23.73077 66.13461 51.25000 0.000000 0.000000 0.000000 0.000000 1.000000 -15.00000 0.000000 0.000000 30.00000 0.000000 0.000000 -16.00000 0.000000 0.000000 -14.75000 -18.48078 0.000000 56.50000 0.000000 0.000000 3.673077 0.000000 0.000000 
